PathFileType	4	(X/Y/Z)	..\data\2014014\dynamic\2014014_C4_04.trc
DataRate	CameraRate	NumFrames	NumMarkers	Units	OrigDataRate	OrigDataStartFrame	OrigNumFrames
100.000000	100.000000	4	52	mm	100.000000	89	178
Frame#	Time	L_IAS			L_IPS			R_IPS			R_IAS			L_FTC			L_FLE			L_FME			L_FAX			L_TTC			L_FAL			L_TAM			L_FCC			L_FM1			L_FM2			L_FM5			R_FTC			R_FLE			R_FME			R_FAX			R_TTC			R_FAL			R_TAM			R_FCC			R_FM1			R_FM2			R_FM5			CV7			TV10			SXS			SJN			L_SIA			L_SRS			L_SAA			L_SAE			L_HLE			L_HME			L_UOA			L_RSP			L_UHE			L_HM2			L_HM5			R_SIA			R_SRS			R_SAA			R_SAE			R_HLE			R_HME			R_UOA			R_RSP			R_UHE			R_HM2			R_HM5			
		X1	Y1	Z1	X2	Y2	Z2	X3	Y3	Z3	X4	Y4	Z4	X5	Y5	Z5	X6	Y6	Z6	X7	Y7	Z7	X8	Y8	Z8	X9	Y9	Z9	X10	Y10	Z10	X11	Y11	Z11	X12	Y12	Z12	X13	Y13	Z13	X14	Y14	Z14	X15	Y15	Z15	X16	Y16	Z16	X17	Y17	Z17	X18	Y18	Z18	X19	Y19	Z19	X20	Y20	Z20	X21	Y21	Z21	X22	Y22	Z22	X23	Y23	Z23	X24	Y24	Z24	X25	Y25	Z25	X26	Y26	Z26	X27	Y27	Z27	X28	Y28	Z28	X29	Y29	Z29	X30	Y30	Z30	X31	Y31	Z31	X32	Y32	Z32	X33	Y33	Z33	X34	Y34	Z34	X35	Y35	Z35	X36	Y36	Z36	X37	Y37	Z37	X38	Y38	Z38	X39	Y39	Z39	X40	Y40	Z40	X41	Y41	Z41	X42	Y42	Z42	X43	Y43	Z43	X44	Y44	Z44	X45	Y45	Z45	X46	Y46	Z46	X47	Y47	Z47	X48	Y48	Z48	X49	Y49	Z49	X50	Y50	Z50	X51	Y51	Z51	X52	Y52	Z52	

90	0.89	915.2237548828127	1002.180786132813	-332.3189697265626	709.2048950195314	1019.757873535156	-251.7803649902344	711.5371093750001	1018.4482421875	-147.0824279785157	915.6294555664065	1002.249633789063	-79.09643554687501	839.6381835937502	904.9760742187502	-401.0996093750001	942.1596679687502	517.1599731445314	-405.4520874023439	969.4320068359377	500.4640197753907	-271.3789367675782	898.0271606445315	477.255096435547	-401.573211669922	960.114685058594	426.9678955078126	-364.9086303710938	649.3901367187501	213.2663269042969	-328.1182861328126	707.7427368164064	214.0673828125001	-242.0824890136719	594.3900756835939	204.9417266845704	-255.5841064453126	745.3334960937501	75.19787597656251	-265.6198425292969	749.0314331054689	88.0415496826172	-322.7380371093751	688.5880126953126	104.1204528808594	-361.5844421386719	848.5169067382815	897.9125976562502	-16.88631057739258	827.9453125000002	487.0337524414064	-101.2242813110352	854.5541992187502	497.1324157714845	-228.7406463623047	807.5109863281252	433.8825073242189	-98.54229736328128	876.1487426757815	425.9194641113282	-147.4281463623047	772.6818847656252	62.40700912475587	-125.5116577148438	805.096130371094	91.62584686279298	-219.6014099121094	734.5734863281251	22.4110164642334	-187.9241790771485	940.683288574219	20.4810848236084	-207.6498413085938	943.9200439453127	38.12075424194337	-148.5321044921875	895.8533935546877	18.32588958740235	-90.67309570312501	771.1368408203127	1545.3310546875	-194.9911804199219	671.4659423828126	1301.443115234375	-203.396713256836	942.7710571289065	1266.175170898438	-209.2618713378907	894.0586547851565	1447.431762695313	-194.7218017578126	651.9222412109376	1336.859985351563	-313.6867370605469	699.2552490234376	1477.806762695313	-312.8627319335938	739.4014892578126	1478.243041992188	-378.6232910156251	791.1074218750002	1471.984985351563	-403.4933471679689	777.140319824219	1131.895874023438	-496.8782348632814	737.1801757812501	1123.102294921875	-412.4678039550782	736.6124877929689	1112.34423828125	-469.6659240722657	866.153015136719	875.779479980469	-448.0827636718751	798.9033203125002	876.3052978515627	-506.8131408691407	894.3579101562502	791.0906372070315	-462.8873901367189	793.4014892578127	792.3703613281252	-511.3966064453126	656.5638427734376	1325.539916992188	-81.85688781738283	715.0895385742189	1462.957763671875	-65.31507110595705	760.1660766601564	1447.237670898438	6.11401414871216	807.821716308594	1438.273681640625	17.00518226623536	818.3782958984377	1096.98046875	90.15894317626955	794.2270507812502	1081.105590820313	-6.426884174346926	778.2241821289065	1074.32861328125	60.80329513549806	935.1724243164065	854.855407714844	30.60799026489259	871.6978759765627	851.820007324219	96.90227508544925	978.2449951171877	768.9729003906252	52.43458175659181	874.5372314453127	753.2451171875001	93.84111785888673	
91	0.9	925.6018066406252	1003.383239746094	-331.2357482910157	719.0621948242189	1020.500854492188	-252.2964172363282	720.9509277343751	1018.62744140625	-147.453857421875	924.6914062500002	1001.962951660156	-78.16529846191408	851.6760864257815	907.0031738281252	-401.4622802734376	959.716735839844	519.9014282226564	-404.2644042968751	986.582214355469	504.1100463867189	-270.2510070800782	916.697937011719	478.5113220214845	-400.4130249023439	980.3008422851565	430.1374511718751	-363.6790161132813	677.1188964843751	205.1337127685547	-328.1520690917969	734.9055175781251	208.0359649658204	-241.9459991455079	622.3148193359376	193.7288970947266	-256.0998840332032	779.2620239257815	72.04825592041017	-266.0510864257813	782.5859985351565	85.62969970703126	-322.9361267089844	721.6711425781251	98.45251464843753	-362.0725097656251	856.4106445312502	897.101989746094	-17.18970489501953	831.047546386719	486.998260498047	-101.8153305053711	857.7749633789065	496.5872497558595	-229.2499237060547	810.1342773437502	433.9984130859376	-99.12064361572268	878.7290039062502	425.3648071289064	-148.0110931396485	772.7740478515627	62.69624710083009	-125.8999710083008	805.442810058594	91.68878173828126	-219.9392395019532	734.7318725585939	22.54440307617188	-188.3320007324219	940.759704589844	20.4568042755127	-207.534652709961	943.9429321289065	38.11052703857423	-148.3971405029297	895.777770996094	18.37686538696289	-90.65743255615236	781.6099243164065	1545.570434570313	-195.0380554199219	681.7400512695314	1301.797973632813	-202.7157440185547	953.0288085937502	1266.311279296875	-208.9621582031251	904.470153808594	1447.621948242188	-194.7873535156251	661.9729614257814	1337.071899414063	-312.9238891601563	709.4312744140626	1477.83544921875	-312.3540344238282	749.1770019531251	1478.182983398438	-378.2361450195313	800.794128417969	1471.838623046875	-403.3135986328126	783.493835449219	1131.791381835938	-496.1159973144532	744.3784179687501	1123.493286132813	-411.3139038085939	742.9426269531251	1112.920043945313	-468.5404663085939	869.0012817382815	874.5230102539065	-448.4064941406251	801.247009277344	876.1345214843752	-506.6068115234376	895.6800537109377	789.3093261718752	-463.4980468750001	794.4926757812502	792.371520996094	-511.4514160156251	667.2644042968751	1326.158813476563	-80.99858856201173	725.7077026367189	1463.562622070313	-64.98646545410158	770.859069824219	1448.035278320313	6.332480907440187	818.687194824219	1439.13037109375	17.20733070373536	832.033142089844	1098.092041015625	90.9512405395508	807.3485107421877	1081.827026367188	-5.446049213409425	791.839782714844	1075.00439453125	61.89860916137697	950.8922119140627	857.0925292968752	31.06878471374512	887.883972167969	853.4871215820315	97.78784942626956	995.156188964844	771.8515625000002	53.09077453613283	891.753601074219	755.1314697265626	95.19711303710939	
92	0.91	935.9185180664065	1004.328857421875	-330.2887573242188	728.8906250000001	1021.067993164063	-252.8560638427735	730.3577270507814	1018.691223144531	-147.8965148925782	933.7844848632815	1001.501831054688	-77.3556365966797	863.6596679687502	908.8007812500002	-401.8720703125001	976.7653808593752	522.2766723632814	-402.9263000488282	1003.029418945313	507.4640502929689	-268.9787292480469	934.9560546875002	479.2401123046876	-399.1361083984376	1000.079650878906	433.0421142578126	-362.2250061035157	705.5357666015626	196.0091247558594	-328.2238464355469	762.7072753906251	201.1497192382813	-241.8276062011719	651.1806030273439	181.487289428711	-256.6623229980469	813.895202636719	68.45439910888673	-266.3652648925782	816.7202758789065	82.56936645507814	-323.0267639160157	755.4316406250001	92.04919433593751	-362.5022277832032	864.3162231445315	896.227722167969	-17.57251739501953	834.313171386719	486.9413146972657	-102.4583740234375	861.0850219726565	496.003387451172	-229.8016967773438	812.8796997070315	434.075408935547	-99.7198181152344	881.4167480468752	424.7524414062501	-148.6390075683594	772.8867187500002	62.99644470214845	-126.3186187744141	805.8320312500002	91.76781463623048	-220.3409118652344	734.9133911132814	22.70790672302246	-188.7549133300782	940.8405761718752	20.46271705627442	-207.4131164550782	943.966979980469	38.12516403198243	-148.2674560546875	895.703308105469	18.44740676879883	-90.65444183349611	792.0891113281252	1545.65478515625	-195.1600189208985	692.0150756835939	1302.014526367188	-202.085433959961	963.3264770507815	1266.31103515625	-208.6680908203126	914.8918457031252	1447.6689453125	-194.8815307617188	672.0115356445314	1337.127319335938	-312.1939392089844	719.6408691406251	1477.701416015625	-311.9140625000001	759.0124511718751	1477.91357421875	-377.8856811523438	810.5219726562502	1471.495971679688	-403.1804504394532	789.807800292969	1131.533325195313	-495.408172607422	751.5747680664064	1123.723999023438	-410.2219543457032	749.2634887695314	1113.327758789063	-467.4639282226564	872.0192871093752	873.236999511719	-448.8037414550782	803.6873168945315	875.854431152344	-506.3524169921876	897.1890258789065	787.5400390625002	-464.176971435547	795.726013183594	792.2657470703127	-511.3509826660157	677.9652099609376	1326.620971679688	-80.21610260009767	736.3014526367189	1464.036254882813	-64.73697662353517	781.5136718750002	1448.678344726563	6.470053195953371	829.4929199218752	1439.873413085938	17.35287666320801	845.5513916015627	1099.088623046875	91.70770263671876	820.4625244140627	1082.455078125	-4.543064117431642	805.3763427734377	1075.557983398438	62.9125442504883	966.5769042968752	859.3020019531252	31.48804664611817	904.0091552734377	855.0993652343752	98.59852600097659	1011.992492675781	774.6524047851565	53.633602142334	908.9480590820315	756.9739379882814	96.448112487793	
93	0.92	946.1636352539065	1005.001708984375	-329.5175170898438	738.6921386718751	1021.449157714844	-253.4368591308594	739.7779541015626	1018.641662597656	-148.3960418701172	942.926452636719	1000.85107421875	-76.69718170166017	875.538269042969	910.3339843750002	-402.3234863281251	993.260681152344	524.2407836914064	-401.4698486328126	1018.729370117188	510.4682617187501	-267.5823364257813	952.7595214843752	479.4166564941407	-397.7611389160157	1019.390869140625	435.6528930664064	-360.5837097167969	734.6845092773439	186.0498504638672	-328.3329467773438	791.2261962890627	193.5282287597657	-241.7511291503907	681.0368652343751	168.3965454101563	-257.2261962890626	849.2468261718752	64.49764251708986	-266.7087707519532	851.4146118164065	78.98877716064455	-323.1583557128907	789.8424072265627	85.1077117919922	-362.9605712890626	872.2585449218752	895.2960205078127	-18.03270149230957	837.7432250976565	486.8594360351564	-103.1436309814453	864.492126464844	495.3921813964845	-230.4049072265626	815.756042480469	434.1167297363282	-100.3360671997071	884.2178955078127	424.0831604003907	-149.298080444336	773.0135498046877	63.30285263061525	-126.7606277465821	806.2626953125002	91.86000061035158	-220.8044738769532	735.1061401367189	22.9036979675293	-189.1844940185547	940.9285278320315	20.49179840087891	-207.2938385009766	943.9937744140627	38.15235137939454	-148.148910522461	895.6294555664065	18.52762031555176	-90.66593170166017	802.5878906250002	1545.580322265625	-195.3515014648438	702.2952880859376	1302.09326171875	-201.5068969726563	973.670104980469	1266.1650390625	-208.403060913086	925.331481933594	1447.558349609375	-195.0155334472657	682.0349121093751	1337.016723632813	-311.4758911132813	729.8837280273439	1477.406372070313	-311.5395812988282	768.915954589844	1477.428955078125	-377.5696105957032	820.2905273437502	1470.951538085938	-403.0976867675782	796.1231079101565	1131.11962890625	-494.7578430175782	758.7819824218751	1123.784423828125	-409.207489013672	755.6174316406251	1113.55712890625	-466.4471130371095	875.2255859375002	871.895935058594	-449.265350341797	806.260437011719	875.453063964844	-506.0604553222657	898.9077148437502	785.7600097656252	-464.9098205566407	797.125671386719	792.0346679687502	-511.0993652343751	688.6752319335939	1326.926513671875	-79.50384521484376	746.8982543945314	1464.37255859375	-64.55846405029298	792.1685180664065	1449.158813476563	6.545470714569094	840.2739868164065	1440.482788085938	17.43729209899903	858.9273681640627	1099.94140625	92.4420623779297	833.5347290039065	1082.957153320313	-3.701035499572755	818.8192138671877	1075.961547851563	63.86536407470705	982.225036621094	861.4532470703127	31.87798500061036	920.059997558594	856.6234130859377	99.33485412597659	1028.756958007813	777.3587646484377	54.06736755371095	926.1135253906252	758.7225341796876	97.56290435791018	
